<svg version="1.1" id="Capa_1" xmlns="http://www.w3.org/2000/svg" xmlns:xlink="http://www.w3.org/1999/xlink" x="0px" y="0px"
	 viewBox="-49 141 512 512" style="enable-background:new -49 141 512 512;" xml:space="preserve">
<g>
	<path fill="#004781" d="M441.24,153.954H83.693c-12.012,0.014-21.746,9.748-21.76,21.76v98.62l-16.35-24.525
		c-7.484-11.289-22.535-14.676-34.133-7.68l-33.638,20.224c-11.016,6.464-19.097,16.946-22.545,29.244
		c-12.271,44.681-3.166,121.66,109.824,234.667C154.947,616.025,221.942,640.2,268.116,640.2c10.69,0.049,21.339-1.34,31.659-4.13
		c12.293-3.448,22.775-11.518,29.252-22.519l20.198-33.673c6.968-11.589,3.584-26.609-7.68-34.091l-80.546-53.692
		c-11.049-7.308-25.859-4.905-34.031,5.521l-23.45,30.148c-2.451,3.226-6.897,4.166-10.445,2.21l-4.463-2.458
		c-14.686-8.004-32.964-17.971-69.879-54.886c-3.994-3.994-7.612-7.731-11.008-11.307H441.24c11.982,0.01,21.713-9.676,21.76-21.658
		V175.714C462.986,163.702,453.252,153.968,441.24,153.954z M180.444,542.502l4.335,2.381c10.897,6.093,24.614,3.266,32.213-6.639
		l23.45-30.148c2.666-3.396,7.49-4.179,11.093-1.801l80.546,53.692c3.659,2.439,4.759,7.321,2.5,11.093l-20.198,33.673
		c-4.218,7.233-11.071,12.553-19.123,14.848c-40.337,11.093-110.933,1.707-218.078-105.446S-39.315,336.413-28.247,296.11
		c2.293-8.051,7.61-14.903,14.839-19.123l33.673-20.207c3.774-2.254,8.652-1.155,11.093,2.5l53.717,80.546
		c2.382,3.602,1.599,8.43-1.801,11.093l-30.157,23.458c-9.903,7.597-12.73,21.311-6.639,32.205l2.389,4.335
		c8.533,15.65,19.14,35.123,57.805,73.779S164.803,533.969,180.444,542.502z M445.933,439.667c-0.028,2.567-2.127,4.627-4.693,4.608
		H92.329c-11.083-12.674-20.64-26.604-28.476-41.506l-2.458-4.48c-1.96-3.54-1.022-7.982,2.202-10.428l30.157-23.458
		c10.43-8.17,12.833-22.983,5.521-34.031L79,299.942V175.714c-0.014-1.249,0.476-2.451,1.359-3.334
		c0.883-0.883,2.085-1.373,3.334-1.359H441.24c1.249-0.014,2.451,0.476,3.334,1.359c0.883,0.883,1.373,2.085,1.359,3.334V439.667z"
		/>
	<path fill="#004781"  d="M423.798,195.101c-2.849-3.748-8.194-4.481-11.947-1.638l-142.618,108.16c-4.035,2.932-9.499,2.932-13.534,0
		l-142.566-108.16c-3.756-2.849-9.111-2.113-11.959,1.643c-2.849,3.756-2.113,9.111,1.643,11.959L245.4,315.217
		c10.144,7.494,23.989,7.494,34.133,0l142.626-108.151c1.805-1.368,2.992-3.398,3.299-5.642
		C425.766,199.179,425.168,196.905,423.798,195.101z"/>
	<path fill="#004781"  d="M189.643,315.933l-87.415,93.611c-3.214,3.447-3.025,8.848,0.422,12.062c3.447,3.214,8.848,3.025,12.062-0.422
		l87.415-93.653c2.888-3.484,2.553-8.617-0.762-11.698C198.049,312.753,192.906,312.797,189.643,315.933z"/>
	<path fill="#004781"  d="M335.853,315.933c-3.214-3.447-8.614-3.637-12.062-0.422c-3.447,3.214-3.637,8.614-0.422,12.062l87.39,93.611
		c3.214,3.447,8.614,3.637,12.062,0.422c3.447-3.214,3.637-8.614,0.422-12.062L335.853,315.933z"/>
</g>
</svg>
